<svg width="23" height="22" viewBox="0 0 23 22" fill="none" xmlns="http://www.w3.org/2000/svg">
<path d="M12.8474 5.01378L12.317 4.48345L12.8474 5.01378ZM12.8474 5.98605L12.317 6.51638L12.8474 5.98605ZM17.4863 1.34712L18.0166 0.816786V0.816786L17.4863 1.34712ZM16.514 1.34712L15.9837 0.816786V0.816786L16.514 1.34712ZM11.0418 3.49992C11.456 3.49992 11.7918 3.16413 11.7918 2.74992C11.7918 2.33571 11.456 1.99992 11.0418 1.99992V3.49992ZM20.5002 10.9999C20.5002 10.5857 20.1644 10.2499 19.7502 10.2499C19.3359 10.2499 19.0002 10.5857 19.0002 10.9999H20.5002ZM2.22575 12.2148C1.81584 12.2743 1.53177 12.6548 1.59128 13.0647C1.65078 13.4747 2.03132 13.7587 2.44124 13.6992L2.22575 12.2148ZM4.0495 12.836L4.04711 13.586C4.05318 13.586 4.05926 13.586 4.06533 13.5858L4.0495 12.836ZM10.7412 14.9728L11.1943 14.3751L11.194 14.3749L10.7412 14.9728ZM13.524 20.3542C13.6276 20.7552 14.0367 20.9963 14.4377 20.8927C14.8388 20.7892 15.0799 20.3801 14.9763 19.979L13.524 20.3542ZM19.4113 16.157C19.7809 16.3441 20.2321 16.1963 20.4193 15.8267C20.6064 15.4572 20.4585 15.0059 20.089 14.8188L19.4113 16.157ZM16.4373 14.6666L16.4345 15.4166L16.4379 15.4166L16.4373 14.6666ZM11.039 15.9084C10.7123 16.1631 10.654 16.6344 10.9087 16.9611C11.1634 17.2877 11.6347 17.3461 11.9613 17.0914L11.039 15.9084ZM20.6668 6.18742V6.93742C21.0481 6.93742 21.4137 6.78597 21.6833 6.51639L21.153 5.98605L20.6226 5.45572C20.6344 5.444 20.6503 5.43742 20.6668 5.43742V6.18742ZM21.153 5.98605L21.6833 6.51639C21.9529 6.2468 22.1043 5.88116 22.1043 5.49992H21.3543H20.6043C20.6043 5.48335 20.6109 5.46745 20.6226 5.45572L21.153 5.98605ZM21.3543 5.49992H22.1043C22.1043 5.11867 21.9529 4.75304 21.6833 4.48345L21.153 5.01378L20.6226 5.54411C20.6109 5.53239 20.6043 5.51649 20.6043 5.49992H21.3543ZM21.153 5.01378L21.6833 4.48345C21.4137 4.21387 21.0481 4.06242 20.6668 4.06242V4.81242V5.56242C20.6503 5.56242 20.6344 5.55583 20.6226 5.54411L21.153 5.01378ZM20.6668 4.81242H19.9168V6.18742H20.6668H21.4168V4.81242H20.6668ZM13.3335 4.81242V4.06242C12.9522 4.06242 12.5866 4.21387 12.317 4.48345L12.8474 5.01378L13.3777 5.54411C13.366 5.55583 13.3501 5.56242 13.3335 5.56242V4.81242ZM12.8474 5.01378L12.317 4.48345C12.0474 4.75304 11.896 5.11867 11.896 5.49992H12.646H13.396C13.396 5.5165 13.3894 5.53239 13.3777 5.54411L12.8474 5.01378ZM12.646 5.49992H11.896C11.896 5.88117 12.0474 6.2468 12.317 6.51638L12.8474 5.98605L13.3777 5.45572C13.3894 5.46744 13.396 5.48334 13.396 5.49992H12.646ZM12.8474 5.98605L12.317 6.51638C12.5866 6.78597 12.9522 6.93742 13.3335 6.93742V6.18742V5.43742C13.3501 5.43742 13.366 5.444 13.3777 5.45572L12.8474 5.98605ZM13.3335 6.18742H14.0835V4.81242H13.3335H12.5835V6.18742H13.3335ZM17.6877 1.83325H18.4377C18.4377 1.452 18.2862 1.08637 18.0166 0.816786L17.4863 1.34712L16.956 1.87745C16.9442 1.86572 16.9377 1.84983 16.9377 1.83325H17.6877ZM17.4863 1.34712L18.0166 0.816786C17.747 0.547202 17.3814 0.395752 17.0002 0.395752V1.14575V1.89575C16.9836 1.89575 16.9677 1.88917 16.956 1.87745L17.4863 1.34712ZM17.0002 1.14575V0.395752C16.6189 0.395752 16.2533 0.547202 15.9837 0.816786L16.514 1.34712L17.0444 1.87745C17.0326 1.88917 17.0167 1.89575 17.0002 1.89575V1.14575ZM16.514 1.34712L15.9837 0.816786C15.7141 1.08637 15.5627 1.452 15.5627 1.83325H16.3127H17.0627C17.0627 1.84983 17.0561 1.86572 17.0444 1.87745L16.514 1.34712ZM16.3127 1.83325V2.58325H17.6877V1.83325V1.08325H16.3127V1.83325ZM16.3127 9.16658H15.5627C15.5627 9.54783 15.7141 9.91347 15.9837 10.183L16.514 9.65272L17.0444 9.12239C17.0561 9.13411 17.0627 9.15001 17.0627 9.16658H16.3127ZM16.514 9.65272L15.9837 10.183C16.2533 10.4526 16.6189 10.6041 17.0002 10.6041V9.85408V9.10408C17.0167 9.10408 17.0326 9.11067 17.0444 9.12239L16.514 9.65272ZM17.0002 9.85408V10.6041C17.3814 10.6041 17.747 10.4526 18.0166 10.183L17.4863 9.65272L16.956 9.12239C16.9677 9.11067 16.9836 9.10408 17.0002 9.10408V9.85408ZM17.4863 9.65272L18.0166 10.183C18.2862 9.91347 18.4377 9.54783 18.4377 9.16658H17.6877H16.9377C16.9377 9.15001 16.9442 9.13411 16.956 9.12239L17.4863 9.65272ZM17.6877 9.16658V8.41658H16.3127V9.16658V9.91658H17.6877V9.16658ZM20.6668 4.81242V4.06242H17.0002V4.81242V5.56242H20.6668V4.81242ZM17.0002 4.81242H16.2502V6.18742H17.0002H17.7502V4.81242H17.0002ZM17.0002 6.18742V6.93742H20.6668V6.18742V5.43742H17.0002V6.18742ZM17.0002 4.81242V4.06242H13.3335V4.81242V5.56242H17.0002V4.81242ZM13.3335 6.18742V6.93742H17.0002V6.18742V5.43742H13.3335V6.18742ZM16.3127 1.83325H15.5627V5.49992H16.3127H17.0627V1.83325H16.3127ZM16.3127 5.49992V6.24992H17.6877V5.49992V4.74992H16.3127V5.49992ZM17.6877 5.49992H18.4377V1.83325H17.6877H16.9377V5.49992H17.6877ZM16.3127 5.49992H15.5627V9.16658H16.3127H17.0627V5.49992H16.3127ZM17.6877 9.16658H18.4377V5.49992H17.6877H16.9377V9.16658H17.6877ZM11.0418 2.74992V1.99992C9.01061 1.99992 7.41154 1.99833 6.16414 2.16599C4.89523 2.33654 3.87842 2.6945 3.07825 3.49467L3.60858 4.025L4.13891 4.55533C4.61382 4.08042 5.26122 3.80084 6.36396 3.65262C7.48821 3.50151 8.96822 3.49992 11.0418 3.49992V2.74992ZM3.60858 4.025L3.07825 3.49467C2.27811 4.29481 1.92013 5.31135 1.74957 6.58021C1.5819 7.8275 1.5835 9.42658 1.5835 11.4583H2.3335H3.0835C3.0835 9.38417 3.08509 7.90417 3.2362 6.78004C3.3844 5.67748 3.66396 5.03028 4.13891 4.55533L3.60858 4.025ZM2.3335 11.4583H1.5835C1.5835 13.4895 1.5819 15.0885 1.74957 16.3359C1.92012 17.6049 2.27808 18.6217 3.07825 19.4218L3.60858 18.8915L4.13891 18.3612C3.66399 17.8863 3.38442 17.2389 3.2362 16.1361C3.08509 15.0119 3.0835 13.5319 3.0835 11.4583H2.3335ZM3.60858 18.8915L3.07825 19.4218C3.87838 20.222 4.89493 20.58 6.16379 20.7505C7.41108 20.9182 9.01016 20.9166 11.0418 20.9166V20.1666V19.4166C8.96775 19.4166 7.48775 19.415 6.36362 19.2639C5.26106 19.1157 4.61386 18.8361 4.13891 18.3612L3.60858 18.8915ZM11.0418 20.1666V20.9166C13.0731 20.9166 14.6721 20.9182 15.9195 20.7505C17.1884 20.58 18.2052 20.222 19.0054 19.4218L18.4751 18.8915L17.9447 18.3612C17.4698 18.8361 16.8224 19.1157 15.7197 19.2639C14.5955 19.415 13.1154 19.4166 11.0418 19.4166V20.1666ZM18.4751 18.8915L19.0054 19.4218C19.8055 18.6217 20.1635 17.6052 20.3341 16.3363C20.5018 15.089 20.5002 13.4899 20.5002 11.4583H19.7502H19.0002C19.0002 13.5323 18.9986 15.0123 18.8475 16.1365C18.6993 17.239 18.4197 17.8862 17.9447 18.3612L18.4751 18.8915ZM19.7502 11.4583H20.5002V10.9999H19.7502H19.0002V11.4583H19.7502ZM2.3335 12.957L2.44124 13.6992C2.97301 13.622 3.5082 13.5843 4.04711 13.586L4.0495 12.836L4.05188 12.086C3.43946 12.0841 2.83064 12.127 2.22575 12.2148L2.3335 12.957ZM4.0495 12.836L4.06533 13.5858C6.33223 13.538 8.53749 14.2445 10.2883 15.5706L10.7412 14.9728L11.194 14.3749C9.16633 12.8391 6.62877 12.0314 4.03366 12.0862L4.0495 12.836ZM10.7412 14.9728L10.2881 15.5704C11.9098 16.7999 13.0409 18.4838 13.524 20.3542L14.2502 20.1666L14.9763 19.979C14.4053 17.7684 13.0742 15.8003 11.1943 14.3751L10.7412 14.9728ZM19.7502 15.4879L20.089 14.8188C18.9153 14.2245 17.685 13.9156 16.4367 13.9166L16.4373 14.6666L16.4379 15.4166C17.4319 15.4158 18.4309 15.6605 19.4113 16.157L19.7502 15.4879ZM16.4373 14.6666L16.4402 13.9166C14.5486 13.9094 12.709 14.6064 11.039 15.9084L11.5002 16.4999L11.9613 17.0914C13.4117 15.9606 14.9325 15.4109 16.4345 15.4166L16.4373 14.6666Z" fill="#FFF6EF"/>
</svg>
